<svg xmlns="http://www.w3.org/2000/svg" version="1.1" xmlns:xlink="http://www.w3.org/1999/xlink" xmlns:svgjs="http://svgjs.dev/svgjs" width="1000" height="252" viewBox="0 0 1000 252"><g transform="matrix(1,0,0,1,-0.606013836287218,0.18116974097866034)"><svg viewBox="0 0 396 100" data-background-color="#ffffff" preserveAspectRatio="xMidYMid meet" height="252" width="1000" xmlns="http://www.w3.org/2000/svg" xmlns:xlink="http://www.w3.org/1999/xlink"><g id="tight-bounds" transform="matrix(1,0,0,1,0.23998147916972812,-0.07189275435661102)"><svg viewBox="0 0 395.52 100.14378550871325" height="100.14378550871325" width="395.52"><g><svg viewBox="0 0 554.6774941675798 140.44170712588152" height="100.14378550871325" width="395.52"><g><rect width="4.184315361804076" height="140.44170712588152" x="144.01947367016294" y="0" fill="#ed2647" opacity="1" stroke-width="0" stroke="transparent" fill-opacity="1" class="rect-o-0" data-fill-palette-color="primary" rx="1%" id="o-0" data-palette-color="#ed2647"></rect></g><g transform="matrix(1,0,0,1,159.15749416757978,0.34935748041263537)"><svg viewBox="0 0 395.52 139.74299216505625" height="139.74299216505625" width="395.52"><g><svg viewBox="0 0 395.52 139.74299216505625" height="139.74299216505625" width="395.52"><g><svg viewBox="0 0 395.52 100.11466625558809" height="100.11466625558809" width="395.52"><g transform="matrix(1,0,0,1,0,0)"><svg width="395.52" viewBox="2.5 -37.45000076293945 325.2999572753906 79.10000610351562" height="100.11466625558809" data-palette-color="#ed2647"><svg></svg><svg></svg><g class="undefined-text-0" data-fill-palette-color="primary" id="text-0"><path xmlns="http://www.w3.org/2000/svg" d="M19.1 0h-16.6v-6.05h4.5v-22.8h-4.5v-6.05h16.6v6.05h-4.5v22.8h4.5zM32.45 0h-7.4v-26.25h7.4v4.45h0.3c0.467-1.367 1.283-2.55 2.45-3.55 1.167-1 2.783-1.5 4.85-1.5v0c2.7 0 4.743 0.9 6.13 2.7 1.38 1.8 2.07 4.367 2.07 7.7v0 16.45h-7.4v-15.85c0-1.7-0.267-2.96-0.8-3.78-0.533-0.813-1.483-1.22-2.85-1.22v0c-0.6 0-1.183 0.073-1.75 0.22-0.567 0.153-1.073 0.397-1.52 0.73-0.453 0.333-0.813 0.74-1.08 1.22-0.267 0.487-0.4 1.047-0.4 1.68v0zM68.45 0h-4.4c-2.567 0-4.507-0.65-5.82-1.95-1.32-1.3-1.98-3.2-1.98-5.7v0-12.85h-3.7v-5.75h1.85c1 0 1.683-0.243 2.05-0.73 0.367-0.48 0.55-1.17 0.55-2.07v0-4.3h6.65v7.1h5.2v5.75h-5.2v14.75h4.8zM84.75 0.6v0c-2 0-3.783-0.327-5.35-0.98-1.567-0.647-2.89-1.563-3.97-2.75-1.087-1.18-1.903-2.62-2.45-4.32-0.553-1.7-0.83-3.6-0.83-5.7v0c0-2.067 0.267-3.943 0.8-5.63 0.533-1.68 1.327-3.12 2.38-4.32 1.047-1.2 2.337-2.127 3.87-2.78 1.533-0.647 3.283-0.97 5.25-0.97v0c2.167 0 4.027 0.367 5.58 1.1 1.547 0.733 2.813 1.717 3.8 2.95 0.98 1.233 1.697 2.657 2.15 4.27 0.447 1.62 0.67 3.313 0.67 5.08v0 2.2h-16.85v0.4c0 1.733 0.467 3.107 1.4 4.12 0.933 1.02 2.4 1.53 4.4 1.53v0c1.533 0 2.783-0.31 3.75-0.93 0.967-0.613 1.867-1.353 2.7-2.22v0l3.7 4.6c-1.167 1.367-2.69 2.433-4.57 3.2-1.887 0.767-4.03 1.15-6.43 1.15zM84.6-21.4v0c-1.5 0-2.673 0.49-3.52 1.47-0.853 0.987-1.28 2.297-1.28 3.93v0 0.4h9.2v-0.45c0-1.6-0.357-2.893-1.07-3.88-0.72-0.98-1.83-1.47-3.33-1.47zM109.3 0h-7.4v-26.25h7.4v5.7h0.25c0.133-0.733 0.367-1.443 0.7-2.13 0.333-0.68 0.777-1.287 1.33-1.82 0.547-0.533 1.203-0.96 1.97-1.28 0.767-0.313 1.667-0.47 2.7-0.47v0h1.3v6.9h-1.85c-2.167 0-3.773 0.283-4.82 0.85-1.053 0.567-1.58 1.617-1.58 3.15v0zM129.5 0h-7.4v-26.25h7.4v4.45h0.3c0.467-1.367 1.283-2.55 2.45-3.55 1.167-1 2.783-1.5 4.85-1.5v0c2.7 0 4.743 0.9 6.13 2.7 1.38 1.8 2.07 4.367 2.07 7.7v0 16.45h-7.4v-15.85c0-1.7-0.267-2.96-0.8-3.78-0.533-0.813-1.483-1.22-2.85-1.22v0c-0.6 0-1.183 0.073-1.75 0.22-0.567 0.153-1.073 0.397-1.52 0.73-0.453 0.333-0.813 0.74-1.08 1.22-0.267 0.487-0.4 1.047-0.4 1.68v0zM175.4 0h-4.1c-1.333 0-2.44-0.417-3.32-1.25-0.887-0.833-1.447-1.95-1.68-3.35v0h-0.3c-0.4 1.7-1.283 2.99-2.65 3.87-1.367 0.887-3.05 1.33-5.05 1.33v0c-2.633 0-4.65-0.7-6.05-2.1-1.4-1.4-2.1-3.25-2.1-5.55v0c0-2.767 1.01-4.827 3.03-6.18 2.013-1.347 4.753-2.02 8.22-2.02v0h4.15v-1.65c0-1.267-0.333-2.277-1-3.03-0.667-0.747-1.783-1.12-3.35-1.12v0c-1.467 0-2.633 0.317-3.5 0.95-0.867 0.633-1.583 1.35-2.15 2.15v0l-4.4-3.9c1.067-1.567 2.41-2.793 4.03-3.68 1.613-0.88 3.803-1.32 6.57-1.32v0c3.733 0 6.533 0.817 8.4 2.45 1.867 1.633 2.8 4.017 2.8 7.15v0 11.5h2.45zM161.05-4.55v0c1.233 0 2.293-0.267 3.18-0.8 0.88-0.533 1.32-1.4 1.32-2.6v0-3.1h-3.6c-2.9 0-4.35 0.983-4.35 2.95v0 0.75c0 0.967 0.3 1.673 0.9 2.12 0.6 0.453 1.45 0.68 2.55 0.68zM193.65 0h-4.4c-2.567 0-4.507-0.65-5.82-1.95-1.32-1.3-1.98-3.2-1.98-5.7v0-12.85h-3.7v-5.75h1.85c1 0 1.683-0.243 2.05-0.73 0.367-0.48 0.55-1.17 0.55-2.07v0-4.3h6.65v7.1h5.2v5.75h-5.2v14.75h4.8zM202.9-29.05v0c-1.5 0-2.59-0.343-3.27-1.03-0.687-0.68-1.03-1.553-1.03-2.62v0-1.1c0-1.067 0.343-1.943 1.03-2.63 0.68-0.68 1.77-1.02 3.27-1.02v0c1.5 0 2.593 0.34 3.28 1.02 0.68 0.687 1.02 1.563 1.02 2.63v0 1.1c0 1.067-0.34 1.94-1.02 2.62-0.687 0.687-1.78 1.03-3.28 1.03zM199.2 0v-26.25h7.4v26.25zM224.15 0.6v0c-1.933 0-3.657-0.317-5.17-0.95-1.52-0.633-2.803-1.55-3.85-2.75-1.053-1.2-1.863-2.65-2.43-4.35-0.567-1.7-0.85-3.6-0.85-5.7v0c0-2.1 0.283-4 0.85-5.7 0.567-1.7 1.377-3.143 2.43-4.33 1.047-1.18 2.33-2.087 3.85-2.72 1.513-0.633 3.237-0.95 5.17-0.95v0c1.933 0 3.66 0.317 5.18 0.95 1.513 0.633 2.797 1.54 3.85 2.72 1.047 1.187 1.853 2.63 2.42 4.33 0.567 1.7 0.85 3.6 0.85 5.7v0c0 2.1-0.283 4-0.85 5.7-0.567 1.7-1.373 3.15-2.42 4.35-1.053 1.2-2.337 2.117-3.85 2.75-1.52 0.633-3.247 0.95-5.18 0.95zM224.15-5.25v0c1.467 0 2.6-0.45 3.4-1.35 0.8-0.9 1.2-2.183 1.2-3.85v0-5.35c0-1.667-0.4-2.95-1.2-3.85-0.8-0.9-1.933-1.35-3.4-1.35v0c-1.467 0-2.6 0.45-3.4 1.35-0.8 0.9-1.2 2.183-1.2 3.85v0 5.35c0 1.667 0.4 2.95 1.2 3.85 0.8 0.9 1.933 1.35 3.4 1.35zM249.1 0h-7.4v-26.25h7.4v4.45h0.3c0.467-1.367 1.283-2.55 2.45-3.55 1.167-1 2.783-1.5 4.85-1.5v0c2.7 0 4.743 0.9 6.13 2.7 1.38 1.8 2.07 4.367 2.07 7.7v0 16.45h-7.4v-15.85c0-1.7-0.267-2.96-0.8-3.78-0.533-0.813-1.483-1.22-2.85-1.22v0c-0.6 0-1.183 0.073-1.75 0.22-0.567 0.153-1.073 0.397-1.52 0.73-0.453 0.333-0.813 0.74-1.08 1.22-0.267 0.487-0.4 1.047-0.4 1.68v0zM295 0h-4.1c-1.333 0-2.44-0.417-3.32-1.25-0.887-0.833-1.447-1.95-1.68-3.35v0h-0.3c-0.4 1.7-1.283 2.99-2.65 3.87-1.367 0.887-3.05 1.33-5.05 1.33v0c-2.633 0-4.65-0.7-6.05-2.1-1.4-1.4-2.1-3.25-2.1-5.55v0c0-2.767 1.01-4.827 3.03-6.18 2.013-1.347 4.753-2.02 8.22-2.02v0h4.15v-1.65c0-1.267-0.333-2.277-1-3.03-0.667-0.747-1.783-1.12-3.35-1.12v0c-1.467 0-2.633 0.317-3.5 0.95-0.867 0.633-1.583 1.35-2.15 2.15v0l-4.4-3.9c1.067-1.567 2.41-2.793 4.03-3.68 1.613-0.88 3.803-1.32 6.57-1.32v0c3.733 0 6.533 0.817 8.4 2.45 1.867 1.633 2.8 4.017 2.8 7.15v0 11.5h2.45zM280.65-4.55v0c1.233 0 2.293-0.267 3.18-0.8 0.88-0.533 1.32-1.4 1.32-2.6v0-3.1h-3.6c-2.9 0-4.35 0.983-4.35 2.95v0 0.75c0 0.967 0.3 1.673 0.9 2.12 0.6 0.453 1.45 0.68 2.55 0.68zM310.65 0h-3.35c-2.533 0-4.39-0.617-5.57-1.85-1.187-1.233-1.78-3.017-1.78-5.35v0-29.8h7.4v31.25h3.3z" fill="#ed2647" fill-rule="nonzero" stroke="none" stroke-width="1" stroke-linecap="butt" stroke-linejoin="miter" stroke-miterlimit="10" stroke-dasharray="" stroke-dashoffset="0" font-family="none" font-weight="none" font-size="none" text-anchor="none" style="mix-blend-mode: normal" data-fill-palette-color="primary" opacity="1"></path><path xmlns="http://www.w3.org/2000/svg" d="M10.85 41.05h-7.4v-26.25h7.4v4.45h0.3c0.467-1.4 1.267-2.593 2.4-3.58 1.133-0.98 2.683-1.47 4.65-1.47v0c1.8 0 3.333 0.45 4.6 1.35 1.267 0.9 2.183 2.217 2.75 3.95v0h0.15c0.233-0.733 0.593-1.427 1.08-2.08 0.48-0.647 1.07-1.203 1.77-1.67 0.7-0.467 1.483-0.843 2.35-1.13 0.867-0.28 1.8-0.42 2.8-0.42v0c2.533 0 4.477 0.9 5.83 2.7 1.347 1.8 2.02 4.367 2.02 7.7v0 16.45h-7.4v-15.85c0-3.333-1.2-5-3.6-5v0c-1.1 0-2.1 0.317-3 0.95-0.9 0.633-1.35 1.6-1.35 2.9v0 17h-7.4v-15.85c0-3.333-1.2-5-3.6-5v0c-0.533 0-1.057 0.073-1.57 0.22-0.52 0.153-0.987 0.397-1.4 0.73-0.42 0.333-0.753 0.74-1 1.22-0.253 0.487-0.38 1.047-0.38 1.68v0zM63.65 41.05v-4.4h-0.25c-0.233 0.667-0.54 1.3-0.92 1.9-0.387 0.6-0.88 1.133-1.48 1.6-0.6 0.467-1.307 0.833-2.12 1.1-0.82 0.267-1.763 0.4-2.83 0.4v0c-2.7 0-4.74-0.893-6.12-2.68-1.387-1.78-2.08-4.337-2.08-7.67v0-16.5h7.4v15.85c0 1.6 0.283 2.833 0.85 3.7 0.567 0.867 1.533 1.3 2.9 1.3v0c0.567 0 1.133-0.083 1.7-0.25 0.567-0.167 1.067-0.41 1.5-0.73 0.433-0.313 0.783-0.703 1.05-1.17 0.267-0.467 0.4-1.017 0.4-1.65v0-17.05h7.4v26.25zM86.85 41.65v0c-2.533 0-4.667-0.41-6.4-1.23-1.733-0.813-3.283-1.97-4.65-3.47v0l4.35-4.4c0.933 1.033 1.967 1.85 3.1 2.45 1.133 0.6 2.417 0.9 3.85 0.9v0c1.467 0 2.483-0.227 3.05-0.68 0.567-0.447 0.85-1.053 0.85-1.82v0c0-1.233-0.883-1.967-2.65-2.2v0l-2.85-0.35c-5.9-0.733-8.85-3.433-8.85-8.1v0c0-1.267 0.243-2.427 0.73-3.48 0.48-1.047 1.16-1.947 2.04-2.7 0.887-0.747 1.957-1.33 3.21-1.75 1.247-0.413 2.653-0.62 4.22-0.62v0c1.367 0 2.573 0.09 3.62 0.27 1.053 0.187 1.99 0.453 2.81 0.8 0.813 0.353 1.563 0.787 2.25 1.3 0.68 0.52 1.353 1.097 2.02 1.73v0l-4.25 4.35c-0.833-0.833-1.777-1.493-2.83-1.98-1.047-0.48-2.12-0.72-3.22-0.72v0c-1.267 0-2.167 0.2-2.7 0.6-0.533 0.4-0.8 0.933-0.8 1.6v0c0 0.7 0.193 1.24 0.58 1.62 0.38 0.387 1.103 0.663 2.17 0.83v0l2.95 0.4c5.767 0.767 8.65 3.4 8.65 7.9v0c0 1.267-0.267 2.433-0.8 3.5-0.533 1.067-1.29 1.99-2.27 2.77-0.987 0.787-2.173 1.397-3.56 1.83-1.38 0.433-2.92 0.65-4.62 0.65zM106.85 12v0c-1.5 0-2.59-0.343-3.27-1.03-0.687-0.68-1.03-1.553-1.03-2.62v0-1.1c0-1.067 0.343-1.943 1.03-2.63 0.68-0.68 1.77-1.02 3.27-1.02v0c1.5 0 2.593 0.34 3.28 1.02 0.68 0.687 1.02 1.563 1.02 2.63v0 1.1c0 1.067-0.34 1.94-1.02 2.62-0.687 0.687-1.78 1.03-3.28 1.03zM103.15 41.05v-26.25h7.4v26.25zM128.05 41.65v0c-1.967 0-3.717-0.327-5.25-0.98-1.533-0.647-2.817-1.563-3.85-2.75-1.033-1.18-1.817-2.62-2.35-4.32-0.533-1.7-0.8-3.6-0.8-5.7v0c0-2.1 0.267-3.99 0.8-5.67 0.533-1.687 1.317-3.13 2.35-4.33 1.033-1.2 2.317-2.117 3.85-2.75 1.533-0.633 3.283-0.95 5.25-0.95v0c2.667 0 4.89 0.6 6.67 1.8 1.787 1.2 3.063 2.883 3.83 5.05v0l-6 2.6c-0.233-1-0.717-1.85-1.45-2.55-0.733-0.7-1.75-1.05-3.05-1.05v0c-1.5 0-2.633 0.49-3.4 1.47-0.767 0.987-1.15 2.313-1.15 3.98v0 4.9c0 1.667 0.383 2.983 1.15 3.95 0.767 0.967 1.9 1.45 3.4 1.45v0c1.333 0 2.39-0.36 3.17-1.08 0.787-0.713 1.363-1.653 1.73-2.82v0l5.75 2.5c-0.867 2.5-2.207 4.333-4.02 5.5-1.82 1.167-4.03 1.75-6.63 1.75zM164 41.65v0c-2.533 0-4.667-0.41-6.4-1.23-1.733-0.813-3.283-1.97-4.65-3.47v0l4.35-4.4c0.933 1.033 1.967 1.85 3.1 2.45 1.133 0.6 2.417 0.9 3.85 0.9v0c1.467 0 2.483-0.227 3.05-0.68 0.567-0.447 0.85-1.053 0.85-1.82v0c0-1.233-0.883-1.967-2.65-2.2v0l-2.85-0.35c-5.9-0.733-8.85-3.433-8.85-8.1v0c0-1.267 0.243-2.427 0.73-3.48 0.48-1.047 1.163-1.947 2.05-2.7 0.88-0.747 1.947-1.33 3.2-1.75 1.247-0.413 2.653-0.62 4.22-0.62v0c1.367 0 2.577 0.09 3.63 0.27 1.047 0.187 1.98 0.453 2.8 0.8 0.813 0.353 1.563 0.787 2.25 1.3 0.68 0.52 1.353 1.097 2.02 1.73v0l-4.25 4.35c-0.833-0.833-1.773-1.493-2.82-1.98-1.053-0.48-2.13-0.72-3.23-0.72v0c-1.267 0-2.167 0.2-2.7 0.6-0.533 0.4-0.8 0.933-0.8 1.6v0c0 0.7 0.19 1.24 0.57 1.62 0.387 0.387 1.113 0.663 2.18 0.83v0l2.95 0.4c5.767 0.767 8.65 3.4 8.65 7.9v0c0 1.267-0.267 2.433-0.8 3.5-0.533 1.067-1.29 1.99-2.27 2.77-0.987 0.787-2.17 1.397-3.55 1.83-1.387 0.433-2.93 0.65-4.63 0.65zM195.8 41.05v-4.4h-0.25c-0.233 0.667-0.54 1.3-0.92 1.9-0.387 0.6-0.88 1.133-1.48 1.6-0.6 0.467-1.307 0.833-2.12 1.1-0.82 0.267-1.763 0.4-2.83 0.4v0c-2.7 0-4.74-0.893-6.12-2.68-1.387-1.78-2.08-4.337-2.08-7.67v0-16.5h7.4v15.85c0 1.6 0.283 2.833 0.85 3.7 0.567 0.867 1.533 1.3 2.9 1.3v0c0.567 0 1.133-0.083 1.7-0.25 0.567-0.167 1.067-0.41 1.5-0.73 0.433-0.313 0.783-0.703 1.05-1.17 0.267-0.467 0.4-1.017 0.4-1.65v0-17.05h7.4v26.25zM217.5 41.05h-7.4v-26.25h7.4v4.45h0.3c0.467-1.4 1.267-2.593 2.4-3.58 1.133-0.98 2.683-1.47 4.65-1.47v0c1.8 0 3.333 0.45 4.6 1.35 1.267 0.9 2.183 2.217 2.75 3.95v0h0.15c0.233-0.733 0.593-1.427 1.08-2.08 0.48-0.647 1.07-1.203 1.77-1.67 0.7-0.467 1.483-0.843 2.35-1.13 0.867-0.28 1.8-0.42 2.8-0.42v0c2.533 0 4.477 0.9 5.83 2.7 1.347 1.8 2.02 4.367 2.02 7.7v0 16.45h-7.4v-15.85c0-3.333-1.2-5-3.6-5v0c-1.1 0-2.1 0.317-3 0.95-0.9 0.633-1.35 1.6-1.35 2.9v0 17h-7.4v-15.85c0-3.333-1.2-5-3.6-5v0c-0.533 0-1.057 0.073-1.57 0.22-0.52 0.153-0.987 0.397-1.4 0.73-0.42 0.333-0.753 0.74-1 1.22-0.253 0.487-0.38 1.047-0.38 1.68v0zM262.2 41.05h-7.4v-26.25h7.4v4.45h0.3c0.467-1.4 1.267-2.593 2.4-3.58 1.133-0.98 2.683-1.47 4.65-1.47v0c1.8 0 3.333 0.45 4.6 1.35 1.267 0.9 2.183 2.217 2.75 3.95v0h0.15c0.233-0.733 0.593-1.427 1.08-2.08 0.48-0.647 1.07-1.203 1.77-1.67 0.7-0.467 1.483-0.843 2.35-1.13 0.867-0.28 1.8-0.42 2.8-0.42v0c2.533 0 4.477 0.9 5.83 2.7 1.347 1.8 2.02 4.367 2.02 7.7v0 16.45h-7.4v-15.85c0-3.333-1.2-5-3.6-5v0c-1.1 0-2.1 0.317-3 0.95-0.9 0.633-1.35 1.6-1.35 2.9v0 17h-7.4v-15.85c0-3.333-1.2-5-3.6-5v0c-0.533 0-1.057 0.073-1.57 0.22-0.52 0.153-0.987 0.397-1.4 0.73-0.42 0.333-0.753 0.74-1 1.22-0.253 0.487-0.38 1.047-0.38 1.68v0zM303.2 12v0c-1.5 0-2.59-0.343-3.27-1.03-0.687-0.68-1.03-1.553-1.03-2.62v0-1.1c0-1.067 0.343-1.943 1.03-2.63 0.68-0.68 1.77-1.02 3.27-1.02v0c1.5 0 2.593 0.34 3.28 1.02 0.68 0.687 1.02 1.563 1.02 2.63v0 1.1c0 1.067-0.34 1.94-1.02 2.62-0.687 0.687-1.78 1.03-3.28 1.03zM299.5 41.05v-26.25h7.4v26.25zM327.4 41.05h-4.4c-2.567 0-4.507-0.65-5.82-1.95-1.32-1.3-1.98-3.2-1.98-5.7v0-12.85h-3.7v-5.75h1.85c1 0 1.683-0.243 2.05-0.73 0.367-0.48 0.55-1.17 0.55-2.07v0-4.3h6.65v7.1h5.2v5.75h-5.2v14.75h4.8z" fill="#ed2647" fill-rule="nonzero" stroke="none" stroke-width="1" stroke-linecap="butt" stroke-linejoin="miter" stroke-miterlimit="10" stroke-dasharray="" stroke-dashoffset="0" font-family="none" font-weight="none" font-size="none" text-anchor="none" style="mix-blend-mode: normal" data-fill-palette-color="primary" opacity="1"></path></g></svg></g></svg></g><g transform="matrix(1,0,0,1,0,111.06837139120086)"><svg viewBox="0 0 199.0827061972062 28.674620773855402" height="28.674620773855402" width="199.0827061972062"><g transform="matrix(1,0,0,1,0,0)"><svg width="199.0827061972062" viewBox="3.5 -37.099998474121094 261.0299987792969 37.599998474121094" height="28.674620773855402" data-palette-color="#ca3433"><path d="M4.3 0L4.3 0Q3.5 0 3.5-0.8L3.5-0.8 3.5-25.75Q3.5-26.5 4.15-26.5L4.15-26.5 8.05-26.5Q8.65-26.5 8.65-25.85L8.65-25.85 8.65-23.1Q8.65-22.85 8.8-22.78 8.95-22.7 9.15-22.95L9.15-22.95Q10.7-24.2 12.05-25.13 13.4-26.05 14.83-26.53 16.25-27 17.9-27L17.9-27Q20.75-27 22.55-25.68 24.35-24.35 25-22.5L25-22.5Q25.1-22.3 25.28-22.35 25.45-22.4 25.65-22.6L25.65-22.6Q27.1-23.95 28.55-24.93 30-25.9 31.5-26.45 33-27 34.65-27L34.65-27Q38.25-27 40.28-24.9 42.3-22.8 42.3-19.25L42.3-19.25 42.3-0.9Q42.3 0 41.4 0L41.4 0 37.7 0Q37.35 0 37.18-0.18 37-0.35 37-0.8L37-0.8 37-18.3Q37-20.5 35.9-21.75 34.8-23 32.6-23L32.6-23Q31.3-23 30.1-22.5 28.9-22 27.93-21.28 26.95-20.55 26.2-19.85L26.2-19.85Q25.85-19.5 25.7-19.2 25.55-18.9 25.55-18.4L25.55-18.4 25.55-0.9Q25.55 0 24.65 0L24.65 0 21 0Q20.65 0 20.45-0.18 20.25-0.35 20.25-0.8L20.25-0.8 20.25-18.3Q20.25-20.5 19.2-21.75 18.15-23 15.85-23L15.85-23Q13.95-23 12.38-22.08 10.8-21.15 8.8-19.25L8.8-19.25 8.8-0.85Q8.8 0 7.85 0L7.85 0 4.3 0ZM58.6-3.5L58.6-3.5Q60.6-3.5 62.37-4.58 64.15-5.65 65.85-7.45L65.85-7.45 65.85-25.65Q65.85-26.5 66.8-26.5L66.8-26.5 70.4-26.5Q71.2-26.5 71.2-25.7L71.2-25.7 71.1-0.7Q71.1 0 70.5 0L70.5 0 66.6 0Q66 0 66-0.65L66-0.65 66-3.45Q66-3.7 65.87-3.78 65.75-3.85 65.5-3.6L65.5-3.6Q62.95-1.3 60.85-0.4 58.75 0.5 56.55 0.5L56.55 0.5Q54.3 0.5 52.52-0.45 50.75-1.4 49.72-3.15 48.7-4.9 48.7-7.25L48.7-7.25 48.7-25.6Q48.7-26.5 49.6-26.5L49.6-26.5 53.25-26.5Q54-26.5 54-25.7L54-25.7 54-8.35Q54-6.2 55.22-4.85 56.45-3.5 58.6-3.5L58.6-3.5ZM94.2-20.3L94.2-20.3Q93.25-21.7 91.55-22.6 89.85-23.5 87.5-23.5L87.5-23.5Q85.05-23.5 83.42-22.5 81.8-21.5 81.8-19.7L81.8-19.7Q81.8-18.85 82.5-18 83.2-17.15 85.5-16.5L85.5-16.5 91.65-14.75Q95.3-13.8 96.9-11.9 98.5-10 98.5-7.55L98.5-7.55Q98.5-5.05 97.07-3.28 95.65-1.5 93.12-0.5 90.6 0.5 87.35 0.5L87.35 0.5Q83.25 0.5 80.22-1.07 77.2-2.65 75.95-5L75.95-5Q75.85-5.3 75.85-5.53 75.85-5.75 76.05-5.9L76.05-5.9 78.5-7.2Q78.85-7.4 79.07-7.38 79.3-7.35 79.4-7.15L79.4-7.15Q80.2-6 81.25-5.1 82.3-4.2 83.8-3.68 85.3-3.15 87.4-3.15L87.4-3.15Q89.15-3.15 90.57-3.63 92-4.1 92.8-4.95 93.6-5.8 93.6-6.95L93.6-6.95Q93.6-8.15 92.62-9.03 91.65-9.9 89.2-10.55L89.2-10.55 84.1-11.85Q80.3-12.85 78.65-14.6 77-16.35 77-18.8L77-18.8Q77-21.25 78.3-23.08 79.6-24.9 81.97-25.95 84.35-27 87.55-27L87.55-27Q91.05-27 93.7-25.68 96.35-24.35 97.7-22.3L97.7-22.3Q97.85-22.1 97.9-21.88 97.95-21.65 97.65-21.45L97.65-21.45 95.05-20.1Q94.85-20 94.62-20.05 94.4-20.1 94.2-20.3L94.2-20.3ZM109.29-25.8L109.29-0.95Q109.29-0.4 109.07-0.2 108.84 0 108.29 0L108.29 0 104.89 0Q104.34 0 104.17-0.18 103.99-0.35 103.99-0.8L103.99-0.8 103.99-25.75Q103.99-26.5 104.69-26.5L104.69-26.5 108.69-26.5Q109.29-26.5 109.29-25.8L109.29-25.8ZM109.44-36.3L109.44-31.8Q109.44-30.75 108.44-30.75L108.44-30.75 104.74-30.75Q104.19-30.75 104.02-31 103.84-31.25 103.84-31.7L103.84-31.7 103.84-36.25Q103.84-37.1 104.59-37.1L104.59-37.1 108.74-37.1Q109.44-37.1 109.44-36.3L109.44-36.3ZM127.69-27L127.69-27Q130.49-27 132.56-26.08 134.64-25.15 136.06-23.63 137.49-22.1 138.34-20.35L138.34-20.35Q138.64-19.65 137.99-19.5L137.99-19.5 134.44-18.9Q133.99-18.8 133.79-19.3L133.79-19.3Q132.94-20.6 132.09-21.45 131.24-22.3 130.24-22.8 129.24-23.3 127.94-23.3L127.94-23.3Q125.64-23.3 123.92-22.13 122.19-20.95 121.27-18.7 120.34-16.45 120.34-13.25L120.34-13.25Q120.34-10.05 121.29-7.78 122.24-5.5 123.99-4.33 125.74-3.15 128.14-3.15L128.14-3.15Q130.49-3.15 132.09-4.35 133.69-5.55 135.04-7.75L135.04-7.75Q135.19-7.95 135.31-8 135.44-8.05 135.74-7.95L135.74-7.95 138.39-7.15Q138.79-7 138.59-6.4L138.59-6.4Q137.99-5.15 137.02-3.9 136.04-2.65 134.72-1.68 133.39-0.7 131.64-0.1 129.89 0.5 127.69 0.5L127.69 0.5Q123.94 0.5 121.06-1.23 118.19-2.95 116.56-6.03 114.94-9.1 114.94-13.15L114.94-13.15Q114.94-17.25 116.59-20.35 118.24-23.45 121.12-25.23 123.99-27 127.69-27L127.69-27ZM154.99 0L154.99 0Q154.19 0 154.19-0.8L154.19-0.8 154.19-25.75Q154.19-26.5 154.84-26.5L154.84-26.5 158.74-26.5Q159.34-26.5 159.34-25.85L159.34-25.85 159.34-23.1Q159.34-22.85 159.49-22.78 159.63-22.7 159.84-22.95L159.84-22.95Q161.38-24.2 162.74-25.13 164.09-26.05 165.51-26.53 166.94-27 168.59-27L168.59-27Q171.44-27 173.24-25.68 175.03-24.35 175.69-22.5L175.69-22.5Q175.78-22.3 175.96-22.35 176.13-22.4 176.34-22.6L176.34-22.6Q177.78-23.95 179.24-24.93 180.69-25.9 182.19-26.45 183.69-27 185.34-27L185.34-27Q188.94-27 190.96-24.9 192.99-22.8 192.99-19.25L192.99-19.25 192.99-0.9Q192.99 0 192.09 0L192.09 0 188.38 0Q188.03 0 187.86-0.18 187.69-0.35 187.69-0.8L187.69-0.8 187.69-18.3Q187.69-20.5 186.59-21.75 185.49-23 183.28-23L183.28-23Q181.99-23 180.78-22.5 179.59-22 178.61-21.28 177.63-20.55 176.88-19.85L176.88-19.85Q176.53-19.5 176.38-19.2 176.24-18.9 176.24-18.4L176.24-18.4 176.24-0.9Q176.24 0 175.34 0L175.34 0 171.69 0Q171.34 0 171.13-0.18 170.94-0.35 170.94-0.8L170.94-0.8 170.94-18.3Q170.94-20.5 169.88-21.75 168.84-23 166.53-23L166.53-23Q164.63-23 163.06-22.08 161.49-21.15 159.49-19.25L159.49-19.25 159.49-0.85Q159.49 0 158.53 0L158.53 0 154.99 0ZM204.98-25.8L204.98-0.95Q204.98-0.4 204.76-0.2 204.53 0 203.98 0L203.98 0 200.58 0Q200.03 0 199.86-0.18 199.68-0.35 199.68-0.8L199.68-0.8 199.68-25.75Q199.68-26.5 200.38-26.5L200.38-26.5 204.38-26.5Q204.98-26.5 204.98-25.8L204.98-25.8ZM205.13-36.3L205.13-31.8Q205.13-30.75 204.13-30.75L204.13-30.75 200.43-30.75Q199.88-30.75 199.71-31 199.53-31.25 199.53-31.7L199.53-31.7 199.53-36.25Q199.53-37.1 200.28-37.1L200.28-37.1 204.43-37.1Q205.13-37.1 205.13-36.3L205.13-36.3ZM212.83 0L212.83 0Q212.03 0 212.03-0.8L212.03-0.8 212.03-25.75Q212.03-26.5 212.68-26.5L212.68-26.5 216.63-26.5Q217.23-26.5 217.23-25.85L217.23-25.85 217.23-23.1Q217.23-22.85 217.35-22.78 217.48-22.7 217.73-22.95L217.73-22.95Q219.28-24.2 220.68-25.13 222.08-26.05 223.53-26.53 224.98-27 226.68-27L226.68-27Q230.48-27 232.58-24.9 234.68-22.8 234.68-19.35L234.68-19.35 234.68-0.9Q234.68 0 233.83 0L233.83 0 230.13 0Q229.73 0 229.56-0.18 229.38-0.35 229.38-0.8L229.38-0.8 229.38-18.3Q229.38-20.5 228.23-21.75 227.08-23 224.68-23L224.68-23Q223.33-23 222.18-22.58 221.03-22.15 219.88-21.33 218.73-20.5 217.33-19.25L217.33-19.25 217.33-0.85Q217.33 0 216.38 0L216.38 0 212.83 0ZM260.13 0L260.13 0Q259.78 0 259.55-0.2 259.33-0.4 259.33-0.8L259.33-0.8 259.33-2.7Q259.33-3.05 259.13-3.1 258.93-3.15 258.68-2.9L258.68-2.9Q258.03-2.3 257.03-1.5 256.03-0.7 254.53-0.1 253.03 0.5 250.98 0.5L250.98 0.5Q247.88 0.5 245.4-1 242.93-2.5 241.5-5.48 240.08-8.45 240.08-12.9L240.08-12.9Q240.08-17.15 241.58-20.3 243.08-23.45 245.68-25.23 248.28-27 251.53-27L251.53-27Q253.88-27 255.5-26.25 257.13-25.5 258.43-24.35L258.43-24.35Q258.83-24 259.03-24.08 259.23-24.15 259.23-24.7L259.23-24.7 259.23-36.35Q259.23-37.1 259.88-37.1L259.88-37.1 263.88-37.1Q264.53-37.1 264.53-36.35L264.53-36.35 264.53-0.85Q264.53-0.4 264.33-0.2 264.13 0 263.58 0L263.58 0 260.13 0ZM259.23-20.3L259.23-20.3Q257.78-21.75 256.33-22.55 254.88-23.35 253.08-23.35L253.08-23.35Q250.88-23.35 249.15-22.2 247.43-21.05 246.45-18.78 245.48-16.5 245.48-13.05L245.48-13.05Q245.48-9.55 246.48-7.35 247.48-5.15 249.15-4.13 250.83-3.1 252.83-3.1L252.83-3.1Q254.63-3.1 256.08-3.95 257.53-4.8 258.38-6.08 259.23-7.35 259.23-8.6L259.23-8.6 259.23-20.3Z" opacity="1" transform="matrix(1,0,0,1,0,0)" fill="#ca3433" class="undefined-text-1" data-fill-palette-color="secondary" id="text-1"></path></svg></g></svg></g></svg></g></svg></g><g transform="matrix(1,0,0,1,0,0.34935748041263537)"><svg viewBox="0 0 133.06576853455016 139.74299216505625" height="139.74299216505625" width="133.06576853455016"><g><svg xmlns="http://www.w3.org/2000/svg" xmlns:xlink="http://www.w3.org/1999/xlink" version="1.1" x="0" y="0" viewBox="7.159908771514893 5.062499523162842 85.64009094238281 89.9375" enable-background="new 0 0 100 100" xml:space="preserve" height="139.74299216505625" width="133.06576853455016" class="icon-icon-0" data-fill-palette-color="accent" id="icon-0"><g fill="#ca3433" data-fill-palette-color="accent"><path d="M70.1 55.1l-0.4 0c-0.3 0-0.5 0.1-0.7 0.2-0.1 0-0.2 0-0.3 0.1-0.2 0-0.5 0.2-0.6 0.3-0.1 0.2-0.2 0.4-0.2 0.7 0.1 0.3 0 0.7-0.1 1-0.1 0.2 0 0.5 0.1 0.7 0.1 0.2 0.3 0.4 0.6 0.4 0.1 0 0.3 0 0.4 0 0.6 0 1.2-0.4 1.6-0.9 0.3-0.5 0.4-1.1 0.4-1.5 0-0.2 0-0.5-0.2-0.7C70.5 55.2 70.3 55.1 70.1 55.1z" fill="#ca3433" data-fill-palette-color="accent"></path><path d="M52.3 47.2c0-0.1-0.1-0.2-0.1-0.2l-0.5-0.5c-0.1-0.1-0.3-0.4-0.8-0.4 0 0-0.1 0-0.1 0-0.5 0-0.8 0.3-0.9 0.4l-2.2 2.2c-0.2 0.2-0.6 0.6-0.5 1.2 0.1 0.5 0.5 1.2 1.5 1.2 0.1 0 0.3 0 0.4 0 1-0.2 2-0.4 3-0.8 0.3-0.1 0.6-0.2 0.9-0.5 0.5-0.4 0.6-1 0.4-1.6C53.3 47.6 52.7 47.4 52.3 47.2zM49.8 49.1l0.9-0.9c0.1 0.2 0.3 0.4 0.6 0.5C50.8 48.9 50.3 49 49.8 49.1z" fill="#ca3433" data-fill-palette-color="accent"></path><path d="M92.7 45.9c0-0.1 0-0.1 0-0.2-0.7-9.6-4.6-18.6-11.4-25.6 0.5-0.7 1.1-1.3 1.7-1.9 0.2-0.2 0.3-0.5 0.2-0.7 0-0.3-0.2-0.5-0.4-0.6-4.4-2.4-15.6-8.5-26-11.8-0.3-0.1-0.7 0-1 0.3-0.2 0.3-0.3 0.7-0.1 1l0.8 1.6c-1.5-0.2-3.1-0.3-4.6-0.3-19.7 0-36.5 14-40.2 33.3-1 1.4-1.9 2.9-2.5 4.5C7 50.1 6.6 55.2 7.9 60.4c0.1 0.4 0.5 0.7 0.9 0.7 0 0 0 0 0 0 0.4 0 0.8-0.3 0.9-0.7 0.4-1.9 1-3.7 1.8-5.4 1.4 9.1 5.9 17.4 12.7 23.7 0.4 0.3 0.7 0.7 1.1 1L22 81.2l-2-3.8c-0.2-0.3-0.4-0.5-0.8-0.5-0.3 0-0.6 0.2-0.8 0.5l-7.1 14.6c-0.1 0.3-0.1 0.6 0 0.8 0.1 0.3 0.4 0.4 0.7 0.5L28.4 95c0 0 0.1 0 0.1 0 0.3 0 0.6-0.1 0.7-0.4 0.2-0.3 0.2-0.6 0-0.9l-2.2-4 7.8-3.9c5.3 2.4 11.1 3.7 17.1 3.7 22.6 0 40.9-18.3 40.9-40.9C92.8 47.7 92.8 46.8 92.7 45.9zM90.9 45.7c-1.1 1.7-2.4 3.9-2.4 5.7 0 0 0 0-0.1 0-0.2 0.1-0.4 0.2-0.7 0.4 0-0.2 0-0.4 0-0.6 0-1.9-0.1-3.6-1-5.6-0.2-0.4-0.4-0.9-0.9-1.3-0.2-0.1-0.4-0.4-0.6-0.6-0.7-0.8-1.5-1.7-2.5-1.7-0.3 0-0.6 0-0.9 0-1.5-0.1-2.3-0.1-3.1-1-0.3-0.3-0.7-0.4-1.1-0.2-0.4 0.2-0.6 0.7-0.4 1.1L78 44c0.1 0.4 0.6 1.7 1.8 1.9 0.4 0 0.7 0 0.9-0.1 0.1 0 0.1 0 0.2-0.1 0.3 0 0.5 0 0.7 0.2 0.1 0.1 0.2 0.3 0.1 0.5 0 0.1 0 0.2 0 0.2 0 0-0.2 0.1-0.3 0.2-0.3 0.1-0.7 0.4-1.1 0.8-0.5 0.6-1.1 1.1-1.7 1.6-0.4 0.3-0.7 0.3-0.8 0.3-0.1-0.1-0.3-0.4-0.4-0.5-0.5-0.9-1.1-1.4-1.5-1.7-0.4-0.3-0.7-0.5-1-1.1L73.2 43c-0.2-0.4-0.7-0.6-1.1-0.4-0.4 0.2-0.7 0.6-0.6 1 0.2 0.8 0.3 1.5 0.4 2.2 0.4 2.3 0.7 4.4 2 6.5 1.1 1.7 3.3 1.3 4.2 1.1 0.2 0 0.3-0.1 0.5-0.1 0.1 0 0.3-0.1 0.3-0.1 0.1 0.2 0 0.7-0.2 1.1-0.7 1.4-1.6 2.7-2.6 3.9-0.2 0.2-0.3 0.4-0.5 0.5-1 1-2.1 2.2-2.3 3.8-0.2 0.9 0 1.7 0.1 2.6 0.1 1.1 0.2 2-0.2 2.6-0.2 0.3-0.6 0.6-1.1 0.8-0.7 0.5-1.5 1-1.9 2-0.1 0.4-0.2 0.7-0.2 1.1 0 0.3 0 0.6-0.1 0.7-0.1 0.1-0.2 0.2-0.4 0.3-0.1 0.1-0.2 0.2-0.3 0.3-0.6 0.5-0.9 1.1-1.2 1.7-0.1 0.2-0.2 0.4-0.3 0.5-0.8 1.4-2.4 2.5-4 2.7-0.4 0-0.6 0-0.8 0-0.4-0.1-0.8-0.7-0.9-1.5-0.1-0.3-0.1-0.5-0.1-0.8-0.1-0.7-0.2-1.4-0.5-2.1-0.2-0.5-0.5-0.9-0.8-1.3-0.6-0.8-0.9-1.3-0.8-1.8 0.1-0.2 0.2-0.4 0.4-0.6 0.1-0.1 0.2-0.3 0.3-0.4 0.9-1.1 1.1-2.8 0.7-4.4-0.4-1.4-1.2-2.5-2-3.5-0.1-0.1-0.2-0.3-0.2-0.3 0-0.1 0.2-0.3 0.3-0.5 0.2-0.3 0.5-0.7 0.7-1.2 0.2-0.8 0-2-2.1-3.1-0.8-0.5-1.9-1-3.1-1-0.7 0-1.3 0.3-1.9 0.5-0.1 0-0.2 0.1-0.4 0.1-1.2 0.4-2.6 0.6-3.9 0.5-0.6 0-1-0.2-1.2-0.4-0.1-0.1-0.2-0.4-0.3-0.6-0.1-0.3-0.3-0.7-0.5-1.1-0.3-0.4-0.6-0.6-1-0.9-0.1-0.1-0.2-0.2-0.3-0.2-0.8-0.7-1.2-1.9-1.1-3.4 0.1-0.8 0.2-1.6 0.4-2.4 0.2-0.7 0.3-1.4 0.4-2.1l0-0.3c0-0.4 0.1-0.7 0.2-1 0.1-0.3 0.4-0.6 0.7-0.9l3.5-3.8c0.3-0.3 1.2-1.4 1.1-2.5 0-0.5-0.3-0.9-0.7-1.3-0.2-0.1-0.3-0.2-0.5-0.3-0.1 0-0.1 0-0.2-0.1-0.1-0.1-0.1-0.1-4.4-1.8-0.7-0.3-1.5-0.6-2.2-0.9 8.1-2.8 15.5-4.4 19.4-5.1-1.5 1.1-2.2 2.3-2.4 2.9-0.3 0.7-0.3 1.1-0.2 1.4 0 0.5-0.4 2.2-0.8 3.6-0.1 0.4 0.1 0.9 0.5 1l2.7 1.2c0.1 0.1 0.3 0.1 0.4 0.1 0.2 0 0.4-0.1 0.6-0.2 0.3-0.2 0.4-0.6 0.2-0.9 0-0.1 0.2-0.2 0.4-0.2 0.9-0.1 6-0.3 6.6-0.2 0 0 0 0 0 0 0 0 0 0 0.1 0 0.1 0 0.1 0 0.2 0 0 0 0 0 0 0 0 0 0 0 0 0 0.3 0 0.6-0.2 0.8-0.5 0 0 0 0 0 0 1.7-3.3 4.8-9 9-14.4C86.5 28.1 90.2 36.6 90.9 45.7zM61.2 31.6c0.1-0.6 1.1-2.7 4.6-3.6l3.1 6.6c-2.2 0-5.6 0.2-5.6 0.2-0.7 0.1-1.3 0.4-1.7 1l-1-0.5C61.2 32.7 61.3 31.9 61.2 31.6zM57.5 9.8l2.2 4.2-0.9 0.2c-0.1 0-2.9 0.7-7.1 2.1 0-0.1 0-0.2 0-0.4-0.3-1.5-1.9-1.6-2.9-1.6-0.2 0-0.3 0-0.5 0l-0.8-0.1c-3.1-0.2-6.5-0.5-10.9 0.7-3.9 1.1-7.8 2.8-10.8 4.3 7-6.2 16.1-9.8 26-9.8C53.8 9.4 55.7 9.6 57.5 9.8zM22 23.3c0.5-0.2 1.1-0.6 2-1 3-1.5 8-4.1 13.2-5.6 4.1-1.1 7.4-0.9 10.3-0.6l0.8 0.1c0.2 0 0.4 0 0.5 0 0.2 0 0.4 0 0.6 0-0.1 0.1-0.3 0.2-0.4 0.4-0.5 0.4-1 0.9-1.4 1.2-3.8 1.4-8.2 3.1-12.7 5.3 0.1-0.4 0.3-0.8 0.5-1.1 0.3-0.6 0.6-1.2 0.7-1.7 0 0 0 0 0-0.1 0 0 0 0 0 0 0 0 0 0 0-0.1 0 0 0 0 0-0.1 0 0 0 0 0 0 0 0 0-0.1 0-0.1 0 0 0-0.1 0-0.1 0 0 0-0.1 0-0.1 0 0 0-0.1 0-0.1 0 0 0-0.1 0-0.1 0 0 0-0.1 0-0.1 0 0 0 0-0.1-0.1 0 0 0 0-0.1-0.1 0 0 0 0-0.1-0.1 0 0 0 0-0.1-0.1 0 0 0 0-0.1 0 0 0-0.1 0-0.1 0 0 0-0.1 0-0.1 0 0 0-0.1 0-0.1 0 0 0 0 0 0 0 0 0 0 0-0.1 0 0 0 0 0-0.1 0-2.9-0.1-5.1 0.6-6.5 1.9-0.2 0.2-0.3 0.4-0.3 0.7 0 0.2 0.1 0.5 0.3 0.6 0.4 0.3 0.8 0.5 1.1 0.6l-0.1 0.1c-0.3 0.3-0.7 0.7-1 0.9-0.1-0.1-0.1-0.2-0.2-0.4-0.1-0.1-0.2-0.4-0.2-0.5 0-0.3-0.1-0.6-0.3-0.8-0.2-0.2-0.5-0.3-1-0.2-1.1 0.2-3.6 2-4 2.7-0.4 0.8-0.7 0.9-1 1.1-0.6 0.3-1.1 0.6-1.8 1.7-0.1 0.2-0.4 0.6-0.3 1.2 0.1 0.6 0.6 1 0.9 1.2 0 0 0 0 0 0-0.1 0.2-0.1 0.3-0.1 0.5 0 0.3 0.2 0.5 0.4 0.6-2.6 1.9-4.9 4-7 6.3C15.9 32.2 18.6 27.4 22 23.3zM22.3 28.9c-0.1-0.1-0.2-0.1-0.3-0.2 0 0-0.1-0.1-0.1-0.1 0.4-0.7 0.7-0.9 1-1 0.6-0.3 1.2-0.7 1.8-1.8 0.3-0.3 1.5-1.2 2.3-1.6 0 0.1 0.1 0.2 0.1 0.2 0.1 0.1 0.1 0.3 0.2 0.4-0.1 0.2 0 0.4 0.1 0.6 0.2 0.3 0.4 0.7 0.9 0.8 0.3 0 0.6-0.1 0.9-0.4l0.1 0c0.9-0.3 1.5-0.9 2-1.4l1.1-1.1c0.2-0.2 0.3-0.4 0.3-0.7 0-0.2-0.1-0.5-0.3-0.6-0.3-0.2-0.5-0.4-0.8-0.5C32.2 21.2 33 21 34 21c0 0.1-0.1 0.2-0.1 0.2-0.4 0.9-0.8 1.7-0.8 2.5 0 0.1 0 0.2 0.1 0.3-3.5 1.8-7 3.9-10.3 6.2C22.9 29.7 22.7 29.2 22.3 28.9zM9 56.1c-0.3-3.5 0.3-6.8 1.8-10 6-13.5 25.3-22.3 37.6-26.8 0 0 0 0 0 0 6.2-2.2 10.7-3.3 10.8-3.4l2-0.5c0.3-0.1 0.5-0.2 0.6-0.5 0.1-0.3 0.1-0.5 0-0.8l-3.6-6.7c9 3.1 18.1 7.9 22.6 10.4-4.7 5.3-8.4 11.6-10.6 15.6l-3.6-7.7c-0.2-0.4-0.5-0.6-0.9-0.5l-1.2 0.2c-0.6 0.1-15.4 2.3-29.7 8.4C21.1 39.7 12.4 47.2 9 56.1zM21.1 72.7c-0.2-1.2-0.4-2.7-0.6-4.2-0.2-2.2-0.5-4.5-1-6.2-0.2-0.6-0.4-1.3-0.8-1.9-0.2-0.2-0.3-0.4-0.5-0.6-0.2-0.2-0.4-0.4-0.5-0.6-0.4-0.7 0-1.7 0.3-2.7 0.1-0.2 0.1-0.5 0-0.7-0.1-0.2-0.3-0.4-0.5-0.5-0.1 0-0.4-0.3-0.5-0.7 0-0.1 0-0.2 0-0.3 0 0 0.1 0 0.1 0 0 0 0.1 0 0.1 0 1.1 0 1.2-1.1 1.3-1.5 0-0.1 0-0.1 0-0.2 0.1 0 0.1 0.1 0.2 0.1 0.1 0.1 0.2 0.1 0.3 0.2 0.4 0.3 0.9 0.8 1.7 0.8 0 0 0 0 0 0 0.2 0 0.5-0.1 0.6-0.3 0.1 0.1 0.2 0.3 0.3 0.5 0.1 0.3 0.3 0.6 0.5 0.9 0.4 0.6 1.1 0.9 1.6 1.1 0.3 0.1 0.6 0.3 0.8 0.4 0.4 0.3 0.6 0.9 0.9 1.6 0.2 0.6 0.4 1.2 0.8 1.7 0.9 1.3 2.4 1.8 3.8 2.2 0.9 0.3 1.8 0.6 2.4 1.1 0.5 0.4 0.9 1 0.8 1.5-0.1 0.3-0.3 0.5-0.6 0.8-0.4 0.4-0.8 0.9-0.9 1.5-0.3 0.9 0 1.8 0.3 2.5 0.1 0.2 0.1 0.4 0.2 0.6 0.1 0.4 0.1 0.8 0 1.1 0 0.1-0.1 0.1-0.1 0.1-0.1 0-0.2 0-0.3 0-0.2 0-0.4 0-0.7 0-1.8 0.3-2 2.6-2 3.4-0.1 0.7-0.4 1.3-0.6 1.3-0.3-0.1-0.6 0-0.8 0.2-0.2 0.2-0.4 0.5-0.3 0.8 0 0.7 0 1.5-0.2 2.2C24.9 77.1 22.9 75 21.1 72.7zM25.4 88.5c-0.2 0.1-0.4 0.3-0.5 0.5-0.1 0.2 0 0.5 0.1 0.7l1.9 3.4-13.4-1.3 5.7-11.9 1.5 3c0.2 0.4 0.7 0.6 1.2 0.4l4.9-2.3c1.9 1.5 3.9 2.7 6 3.8L25.4 88.5zM51.9 87.7c-8.8 0-16.8-2.8-23.4-7.6 0.1-0.1 0.2-0.2 0.2-0.4 0.2-0.7 0.3-1.4 0.4-2.2 0.1-0.1 0.3-0.1 0.4-0.2 0.9-0.6 1.2-1.8 1.3-2.6 0.1-1.4 0.4-1.7 0.6-1.8 0.1 0 0.2 0 0.3 0 0.2 0 0.5 0 0.8-0.1 0.5-0.1 0.9-0.4 1.2-0.9 0.5-0.8 0.4-1.8 0.2-2.5-0.1-0.2-0.1-0.4-0.2-0.7-0.2-0.5-0.4-1.1-0.3-1.5 0.1-0.3 0.3-0.5 0.6-0.8 0.4-0.4 0.8-0.9 0.9-1.5 0.4-1.4-0.4-2.7-1.4-3.4-0.9-0.7-1.9-1-3-1.3-1.2-0.4-2.3-0.7-2.9-1.6-0.3-0.4-0.4-0.8-0.6-1.3-0.3-0.8-0.6-1.7-1.4-2.3-0.4-0.3-0.8-0.5-1.2-0.7-0.4-0.2-0.7-0.3-0.9-0.6-0.1-0.1-0.2-0.3-0.3-0.5-0.1-0.3-0.3-0.6-0.5-0.9-0.4-0.5-1.1-0.8-1.7-0.7-0.2 0-0.4 0.1-0.6 0.2-0.1-0.1-0.2-0.2-0.3-0.3-0.1-0.1-0.2-0.2-0.3-0.3-0.7-0.5-1.7-0.7-2.5-0.1 0 0 0 0 0 0 0 0 0 0 0 0 0 0-0.1 0.1-0.1 0.1-0.4 0.5-0.8 0.9-1.1 1.2 0 0 0 0 0 0-0.7 0.7-0.9 1.6-0.7 2.5 0.1 0.6 0.5 1.1 0.8 1.4-0.4 1.1-0.6 2.3 0 3.4 0.2 0.4 0.5 0.7 0.7 1 0.1 0.1 0.3 0.3 0.4 0.5 0.3 0.4 0.4 0.9 0.6 1.4 0.5 1.5 0.7 3.8 0.9 5.9 0 0.3 0.1 0.6 0.1 0.9-3.2-5-5.2-10.9-5.9-17.2 4.2-6.5 11.8-12.3 22.6-16.9 1.5-0.7 3.1-1.3 4.6-1.8 0.6 0.2 1.7 0.7 4.1 1.6 1.8 0.7 3.5 1.4 3.9 1.5 0.2 0.1 0.3 0.2 0.5 0.3 0.1 0 0.1 0 0.1 0.1 0 0.1-0.1 0.6-0.6 1.1l-3.5 3.8c-0.3 0.4-0.7 0.8-1 1.3-0.2 0.5-0.3 1.1-0.3 1.5l0 0.2c-0.1 0.6-0.2 1.3-0.4 2-0.2 0.8-0.4 1.7-0.4 2.6-0.2 2.1 0.5 3.9 1.8 5 0.1 0.1 0.3 0.2 0.4 0.3 0.2 0.2 0.4 0.3 0.5 0.4 0.1 0.1 0.2 0.4 0.3 0.6 0.1 0.4 0.3 0.8 0.6 1.2 0.7 0.8 1.7 1 2.4 1 1.6 0.1 3.2-0.1 4.6-0.6 0.1 0 0.3-0.1 0.4-0.1 0.5-0.2 0.9-0.3 1.3-0.4 0.6 0 1.3 0.3 2.2 0.8 0.8 0.4 1.3 0.9 1.2 1.2 0 0.1-0.2 0.4-0.3 0.6-0.3 0.4-0.8 1-0.6 1.9 0.1 0.5 0.4 0.9 0.6 1.1 0.7 0.9 1.4 1.9 1.7 2.9 0.3 1 0.2 2.1-0.4 2.8-0.1 0.1-0.2 0.2-0.3 0.3-0.3 0.3-0.6 0.6-0.7 1.1-0.5 1.4 0.3 2.5 1 3.5 0.3 0.4 0.5 0.7 0.7 1.1 0.2 0.4 0.3 1 0.4 1.6 0 0.3 0.1 0.6 0.2 0.9 0.3 1.4 1.1 2.5 2.1 2.8 0.3 0.1 0.7 0.1 0.9 0.1 0.2 0 0.5 0 0.7-0.1 2.2-0.3 4.2-1.6 5.3-3.6 0.1-0.2 0.2-0.4 0.3-0.6 0.2-0.5 0.5-0.9 0.8-1.2 0.1-0.1 0.2-0.1 0.2-0.2 0.2-0.2 0.5-0.4 0.8-0.7 0.4-0.5 0.4-1.1 0.4-1.6 0-0.2 0-0.5 0.1-0.6 0.1-0.4 0.6-0.7 1.1-1 0.5-0.3 1.1-0.7 1.5-1.3 0.9-1.2 0.7-2.7 0.6-3.9-0.1-0.7-0.2-1.4-0.1-2 0.2-1.1 1-2 1.9-2.9 0.2-0.2 0.3-0.4 0.5-0.6 1.1-1.3 2.1-2.7 2.9-4.3 0.3-0.7 0.6-1.8 0.2-2.7-0.2-0.5-0.6-0.8-1.2-0.9-0.5-0.1-1 0-1.3 0.1-0.1 0-0.2 0.1-0.3 0.1-1.4 0.2-2.1 0.1-2.4-0.3-0.7-1.1-1.1-2.3-1.4-3.5 0.2 0.2 0.4 0.4 0.6 0.5 0.4 0.3 0.7 0.5 1 1.1 0.2 0.4 0.5 0.9 1.1 1.3 0.8 0.4 1.7 0.3 2.7-0.4 0.8-0.5 1.4-1.2 2-1.8 0.2-0.2 0.4-0.3 0.6-0.4 0.5-0.2 1.2-0.6 1.3-1.7 0.1-0.8-0.1-1.5-0.6-2-0.5-0.5-1.3-0.8-2.2-0.6-0.1 0-0.3 0.1-0.4 0.1-0.1 0-0.2 0.1-0.2 0.1 0 0-0.1-0.1-0.3-0.7l0-0.1c0.7 0.2 1.4 0.2 2.1 0.2 0.3 0 0.5 0 0.8 0 0.3 0 1 0.8 1.3 1.2 0.3 0.3 0.5 0.6 0.8 0.8 0.1 0.1 0.3 0.4 0.4 0.6 0.7 1.7 0.8 3.2 0.8 4.9 0 0.8 0 1.6 0.1 2.5 0 0.4 0.4 0.8 0.8 0.8 1 0.1 1.8-0.6 2.1-1.4 0.1 0 0.1-0.1 0.2-0.1 0.4-0.2 1.2-0.5 1.1-1.4 0-0.6 0.2-1.5 0.8-2.6C90.7 70.4 73.3 87.7 51.9 87.7z" fill="#ca3433" data-fill-palette-color="accent"></path></g></svg></g></svg></g></svg></g><defs></defs></svg><rect width="395.52" height="100.14378550871325" fill="none" stroke="none" visibility="hidden"></rect></g></svg></g></svg>